<?xml version="1.0" encoding="UTF-8" standalone="no"?><!DOCTYPE svg PUBLIC "-//W3C//DTD SVG 1.1//EN" "http://www.w3.org/Graphics/SVG/1.1/DTD/svg11.dtd"><svg width="100%" height="100%" viewBox="0 0 434 396" version="1.1" xmlns="http://www.w3.org/2000/svg" xmlns:xlink="http://www.w3.org/1999/xlink" xml:space="preserve" xmlns:serif="http://www.serif.com/" style="fill-rule:evenodd;clip-rule:evenodd;stroke-linejoin:round;stroke-miterlimit:2;"><g id="_473d9072-3e8d-44a6-af4f-d3c6fff0bd0f" serif:id="473d9072-3e8d-44a6-af4f-d3c6fff0bd0f"></g><g id="_7c203b83-75b7-41fd-ac9a-ad838fe44a09" serif:id="7c203b83-75b7-41fd-ac9a-ad838fe44a09"><path d="M31.523,250.988l49.035,0l-0,116.085c-0,15.163 10.291,28.861 25.6,28.861l217.486,-0c15.304,-0 29.752,-13.698 29.752,-28.861l0,-116.085l48.536,0c15.308,0 27.718,-11.941 27.718,-27.109c0,-7.985 -3.444,-14.831 -8.935,-19.849l-183.927,-191.989c-5.244,-5.498 -12.508,-8.63 -20.105,-8.666c-7.597,-0 -13.054,2.864 -18.289,8.325l-58.153,62.434l0,-38.987c0,-14.477 -14.226,-26.218 -29.842,-26.218c-15.615,0 -29.841,11.737 -29.841,26.218l-0,97.869l-68.888,71.458c-7.626,7.955 -9.86,20.185 -5.482,30.272c4.37,10.082 14.256,16.242 25.335,16.242Zm185.164,-172.77l120.624,125.876l-13.667,0c-15.305,0 -29.931,5.026 -29.931,20.186l-0,116.233l-153.472,0l0,-116.233c0,-15.16 -18.775,-20.186 -34.083,-20.186l-10.091,0l120.62,-125.876Z" style="fill-rule:nonzero;"/></g></svg>