<svg data-v-423bf9ae="" xmlns="http://www.w3.org/2000/svg" viewBox="0 0 749 95" class="iconLeft"><!----><!----><!----><g data-v-423bf9ae="" id="473d9072-3e8d-44a6-af4f-d3c6fff0bd0f" fill="black" transform="matrix(5.714285714285714,0,0,5.714285714285714,116.56394025257657,-4.035760504858835)"><path d="M0.98 14.08L3.47 14.08L3.47 11.33L5.36 11.33L5.43 11.33L6.89 14.08L9.72 14.08L7.66 10.85C8.81 10.28 9.44 9.20 9.44 7.70C9.44 5.52 7.95 4.28 5.36 4.28L0.98 4.28ZM3.47 9.37L3.47 6.24L5.36 6.24C6.44 6.24 7.07 6.76 7.07 7.78C7.07 8.82 6.44 9.37 5.36 9.37ZM10.51 11.83C10.51 13.22 11.49 14.20 13.10 14.20C14.13 14.20 14.92 13.86 15.41 13.22L15.41 14.08L17.78 14.08L17.78 9.16C17.77 7.45 16.56 6.43 14.49 6.43C13.23 6.43 12.17 6.73 10.99 7.28L11.68 8.88C12.47 8.47 13.30 8.25 13.93 8.25C14.91 8.25 15.40 8.69 15.40 9.44L15.40 9.55L13.41 9.55C11.54 9.56 10.51 10.40 10.51 11.83ZM12.78 11.66C12.78 11.10 13.15 10.85 13.87 10.85L15.40 10.85L15.40 11.52C15.25 12.14 14.60 12.56 13.85 12.56C13.17 12.56 12.78 12.21 12.78 11.66ZM19.50 14.08L21.92 14.08L21.92 10.09C22.02 9.20 22.58 8.57 23.46 8.57C24.28 8.57 24.79 9.11 24.79 10.00L24.79 14.08L27.20 14.08L27.20 9.32C27.20 7.56 26.11 6.43 24.44 6.43C23.32 6.44 22.46 6.89 21.92 7.77L21.92 6.54L19.50 6.54ZM28.31 10.28C28.31 12.61 29.71 14.18 31.84 14.18C32.80 14.18 33.57 13.79 34.10 13.09L34.10 14.08L36.53 14.08L36.53 3.70L34.10 3.70L34.10 7.53C33.57 6.83 32.77 6.44 31.78 6.44C29.69 6.44 28.31 7.97 28.31 10.28ZM30.73 10.33C30.74 9.17 31.42 8.37 32.42 8.37C33.43 8.37 34.10 9.17 34.10 10.33C34.10 11.49 33.43 12.31 32.42 12.31C31.42 12.31 30.74 11.49 30.73 10.33ZM37.90 10.30C37.90 12.63 39.55 14.17 42.03 14.17C44.49 14.17 46.14 12.63 46.14 10.30C46.14 7.98 44.49 6.45 42.03 6.45C39.55 6.45 37.90 7.98 37.90 10.30ZM40.33 10.33C40.33 9.17 41.02 8.37 42.03 8.37C43.02 8.37 43.71 9.17 43.71 10.33C43.71 11.51 43.02 12.29 42.03 12.29C41.02 12.29 40.33 11.51 40.33 10.33ZM47.45 14.08L49.85 14.08L49.85 10.35C49.85 9.32 50.43 8.58 51.35 8.55C52.15 8.55 52.64 9.10 52.64 10.00L52.64 14.08L55.06 14.08L55.06 10.35C55.06 9.32 55.62 8.58 56.53 8.55C57.33 8.55 57.83 9.10 57.83 10.00L57.83 14.08L60.24 14.08L60.24 9.32C60.24 7.56 59.18 6.43 57.53 6.43C56.28 6.44 55.36 7.01 54.87 8.13C54.49 7.07 53.58 6.43 52.35 6.43C51.24 6.44 50.37 6.89 49.85 7.78L49.85 6.54L47.45 6.54ZM61.98 14.08L64.47 14.08L64.47 10.28L68.53 10.28L68.53 14.08L71.02 14.08L71.02 4.28L68.53 4.28L68.53 8.32L64.47 8.32L64.47 4.28L61.98 4.28ZM72.34 10.30C72.34 12.63 73.99 14.17 76.47 14.17C78.93 14.17 80.58 12.63 80.58 10.30C80.58 7.98 78.93 6.45 76.47 6.45C73.99 6.45 72.34 7.98 72.34 10.30ZM74.77 10.33C74.77 9.17 75.46 8.37 76.47 8.37C77.46 8.37 78.15 9.17 78.15 10.33C78.15 11.51 77.46 12.29 76.47 12.29C75.46 12.29 74.77 11.51 74.77 10.33ZM81.89 14.08L84.29 14.08L84.29 10.35C84.29 9.32 84.87 8.58 85.79 8.55C86.59 8.55 87.08 9.10 87.08 10.00L87.08 14.08L89.50 14.08L89.50 10.35C89.50 9.32 90.06 8.58 90.97 8.55C91.77 8.55 92.27 9.10 92.27 10.00L92.27 14.08L94.68 14.08L94.68 9.32C94.68 7.56 93.62 6.43 91.97 6.43C90.72 6.44 89.80 7.01 89.31 8.13C88.93 7.07 88.02 6.43 86.79 6.43C85.68 6.44 84.81 6.89 84.29 7.78L84.29 6.54L81.89 6.54ZM95.77 10.33C95.77 12.63 97.31 14.17 99.78 14.17C101.16 14.17 102.30 13.68 103.07 12.84L101.79 11.59C101.29 12.10 100.65 12.36 99.99 12.36C99.09 12.36 98.45 11.86 98.21 10.96L103.52 10.96C103.68 8.20 102.37 6.45 99.71 6.45C97.37 6.45 95.77 7.99 95.77 10.33ZM98.17 9.66C98.32 8.75 98.90 8.13 99.74 8.13C100.60 8.13 101.19 8.74 101.19 9.66ZM104.09 13.12C105.00 13.82 106.22 14.18 107.48 14.18C109.30 14.18 110.66 13.33 110.66 11.77C110.67 9.14 106.69 9.65 106.69 8.61C106.69 8.26 107.00 8.09 107.44 8.09C108.07 8.09 108.91 8.36 109.82 8.85L110.64 7.28C109.72 6.73 108.63 6.43 107.53 6.43C105.78 6.43 104.47 7.27 104.47 8.82C104.45 11.47 108.36 10.89 108.36 12.00C108.36 12.35 108.01 12.52 107.53 12.52C106.69 12.52 105.71 12.18 104.86 11.58Z"></path></g><!----><g data-v-423bf9ae="" id="7c203b83-75b7-41fd-ac9a-ad838fe44a09" transform="matrix(1.0231443617078992,0,0,1.0231443617078992,0.9172385694104861,-3.1977537918679815)" stroke="none" fill="black"><path d="M6.498 62H18v27.23c0 3.557 2.414 6.77 6.005 6.77h51.016C78.611 96 82 92.787 82 89.23V62h11.385c3.591 0 6.502-2.801 6.502-6.359 0-1.873-.808-3.479-2.096-4.656L54.647 5.95a6.56 6.56 0 0 0-4.716-2.033c-1.782 0-3.062.672-4.29 1.953L32 20.515V11.37c0-3.396-3.337-6.15-7-6.15s-7 2.753-7 6.15v22.957L1.841 51.089C.052 52.955-.472 55.824.555 58.19 1.58 60.555 3.899 62 6.498 62zm43.434-40.527L78.227 51h-3.206C71.431 51 68 52.179 68 55.735V83H32V55.735C32 52.179 27.596 51 24.005 51h-2.367l28.294-29.527z"></path></g><!----></svg>